# xmcd CD database file
#
# Track frame offsets:
#	150
#	16091
#	24064
#	36093
#	49317
#	62665
#
# Disc length: 1154 seconds
#
# Revision: 0
# Processed by: cddbd v1.5.2PL0 Copyright (c) Steve Scherf et al.
# Submitted via: CDex 1.51
#
DISCID=3d048006
DTITLE=The Cherrypops - Pop!
DYEAR=2013
DGENRE=Garage Rock
TTITLE0=Träumer
TTITLE1=Versteck Dich
TTITLE2=Ich Würe Lieber Ein Mädchen Küssen Als Einen Jungen Wie Dich
TTITLE3=Jede Nacht
TTITLE4=Nette Dagegen
TTITLE5=Aufwind
EXTD=YEAR: 2013
EXTT0=
EXTT1=
EXTT2=
EXTT3=
EXTT4=
EXTT5=
PLAYORDER=
